<svg width="20" height="20" viewBox="0 0 20 20" fill="none" xmlns="http://www.w3.org/2000/svg">
<path d="M9.99995 0C4.47718 0 0 4.47723 0 10.0001C0 15.0708 3.7743 19.2594 8.66672 19.9114V17.8963C8.66672 17.3281 8.30835 16.8176 7.76975 16.6368C4.94695 15.6885 2.92754 12.9904 3.00192 9.83131C3.09247 5.9854 6.22534 2.96154 10.0722 3.00031C13.9049 3.03908 17 6.15811 17 10.0001C17 10.0876 16.9979 10.1748 16.9947 10.2614C16.9939 10.2808 16.9933 10.3004 16.9925 10.3199C16.9888 10.4004 16.9839 10.4808 16.9776 10.5606C16.9757 10.5861 16.9731 10.6114 16.9708 10.6368C16.9659 10.6926 16.9602 10.748 16.9539 10.8032C16.9468 10.866 16.9386 10.9285 16.9298 10.9906C16.926 11.019 16.9222 11.0475 16.9178 11.0757C16.0608 16.7212 8.70785 19.8942 8.66749 19.9115C9.10354 19.9695 9.54822 20 9.99995 20C15.5228 20 20 15.5229 20 10.0001C20 4.47723 15.5228 0 9.99995 0Z" fill="#51C3F2"/>
</svg>
