<svg width="20" height="20" viewBox="0 0 20 20" fill="none" xmlns="http://www.w3.org/2000/svg">
<g clip-path="url(#clip0_11053_24045)">
<mask id="mask0_11053_24045" style="mask-type:alpha" maskUnits="userSpaceOnUse" x="0" y="0" width="20" height="20">
<path d="M9.99999 0C10.2092 0 10.3917 0.143077 10.4428 0.346154C10.5989 0.967273 10.8045 1.57486 11.0578 2.16308C11.72 3.70154 12.6286 5.048 13.7821 6.20154C14.9363 7.35539 16.2824 8.264 17.8206 8.92615C18.409 9.17938 19.0166 9.38506 19.6378 9.54123C19.8409 9.59231 19.9837 9.77446 19.9837 9.98369C19.9837 10.1929 19.8409 10.3754 19.6375 10.4265C19.0164 10.5826 18.4088 10.7882 17.8206 11.0415C16.2821 11.7037 14.936 12.6123 13.7821 13.7658C12.6286 14.92 11.72 16.2662 11.0578 17.8043C10.8045 18.3926 10.5987 19.0003 10.4425 19.6215C10.4177 19.7202 10.3608 19.8078 10.2806 19.8705C10.2005 19.9331 10.1017 19.9672 9.99999 19.9674C9.79076 19.9674 9.6086 19.8246 9.55753 19.6212C9.40132 19.0001 9.19554 18.3925 8.94214 17.8043C8.2803 16.2658 7.37199 14.9197 6.21784 13.7658C5.06399 12.6123 3.71783 11.7037 2.17937 11.0415C1.59114 10.7882 0.983553 10.5824 0.36245 10.4262C0.26377 10.4015 0.176138 10.3446 0.113436 10.2645C0.0507352 10.1844 0.0165501 10.0857 0.0162964 9.984C0.0162964 9.77477 0.159373 9.59262 0.36245 9.54154C0.983579 9.38535 1.59117 9.17956 2.17937 8.92615C3.71783 8.26431 5.0643 7.35569 6.21784 6.20185C7.37168 5.04831 8.2803 3.70185 8.94245 2.16338C9.19567 1.57514 9.40135 0.967556 9.55753 0.346462C9.58214 0.247673 9.63904 0.159933 9.7192 0.0971669C9.79936 0.0344004 9.89818 0.000202465 9.99999 0Z" fill="black"/>
<path d="M9.99999 0C10.2092 0 10.3917 0.143077 10.4428 0.346154C10.5989 0.967273 10.8045 1.57486 11.0578 2.16308C11.72 3.70154 12.6286 5.048 13.7821 6.20154C14.9363 7.35539 16.2824 8.264 17.8206 8.92615C18.409 9.17938 19.0166 9.38506 19.6378 9.54123C19.8409 9.59231 19.9837 9.77446 19.9837 9.98369C19.9837 10.1929 19.8409 10.3754 19.6375 10.4265C19.0164 10.5826 18.4088 10.7882 17.8206 11.0415C16.2821 11.7037 14.936 12.6123 13.7821 13.7658C12.6286 14.92 11.72 16.2662 11.0578 17.8043C10.8045 18.3926 10.5987 19.0003 10.4425 19.6215C10.4177 19.7202 10.3608 19.8078 10.2806 19.8705C10.2005 19.9331 10.1017 19.9672 9.99999 19.9674C9.79076 19.9674 9.6086 19.8246 9.55753 19.6212C9.40132 19.0001 9.19554 18.3925 8.94214 17.8043C8.2803 16.2658 7.37199 14.9197 6.21784 13.7658C5.06399 12.6123 3.71783 11.7037 2.17937 11.0415C1.59114 10.7882 0.983553 10.5824 0.36245 10.4262C0.26377 10.4015 0.176138 10.3446 0.113436 10.2645C0.0507352 10.1844 0.0165501 10.0857 0.0162964 9.984C0.0162964 9.77477 0.159373 9.59262 0.36245 9.54154C0.983579 9.38535 1.59117 9.17956 2.17937 8.92615C3.71783 8.26431 5.0643 7.35569 6.21784 6.20185C7.37168 5.04831 8.2803 3.70185 8.94245 2.16338C9.19567 1.57514 9.40135 0.967556 9.55753 0.346462C9.58214 0.247673 9.63904 0.159933 9.7192 0.0971669C9.79936 0.0344004 9.89818 0.000202465 9.99999 0Z" fill="url(#paint0_linear_11053_24045)"/>
</mask>
<g mask="url(#mask0_11053_24045)">
<g filter="url(#filter0_f_11053_24045)"><path d="M-1.78647 15.6102C0.520608 16.4296 3.1723 14.8933 4.1363 12.1789C5.1003 9.4647 4.01138 6.60008 1.7043 5.7807C-0.602776 4.96131 -3.25447 6.49762 -4.21878 9.21177C-5.18247 11.9262 -4.09355 14.7909 -1.78647 15.6102Z" fill="#FFE432"/></g>
<g filter="url(#filter1_f_11053_24045)"><path d="M8.45722 6.66088C11.6265 6.66088 14.196 4.03473 14.196 0.79565C14.196 -2.44373 11.6268 -5.06958 8.45722 -5.06958C5.28768 -5.06958 2.71783 -2.44343 2.71783 0.79565C2.71783 4.03473 5.28737 6.66088 8.45722 6.66088Z" fill="#FC413D"/></g>
<g filter="url(#filter2_f_11053_24045)"><path d="M6.22672 25.4176C9.53534 25.256 12.0476 21.6502 11.8381 17.364C11.6289 13.0779 8.77657 9.73417 5.46796 9.89602C2.15934 10.0579 -0.352968 13.6634 -0.143429 17.9496C0.0661093 22.2357 2.91811 25.5794 6.22672 25.4176Z" fill="#00B95C"/></g>
<g filter="url(#filter3_f_11053_24045)"><path d="M6.22672 25.4176C9.53534 25.256 12.0476 21.6502 11.8381 17.364C11.6289 13.0779 8.77657 9.73417 5.46796 9.89602C2.15934 10.0579 -0.352968 13.6634 -0.143429 17.9496C0.0661093 22.2357 2.91811 25.5794 6.22672 25.4176Z" fill="#00B95C"/></g>
<g filter="url(#filter4_f_11053_24045)"><path d="M9.54063 22.8247C12.3142 21.137 13.0566 17.2936 11.1988 14.2401C9.34094 11.1862 5.58617 10.0789 2.81232 11.7662C0.0384747 13.4542 -0.703987 17.2976 1.15386 20.3515C3.01232 23.405 6.76678 24.5124 9.54063 22.8247Z" fill="#00B95C"/></g>
<g filter="url(#filter5_f_11053_24045)"><path d="M20.752 13.2284C23.8695 13.2284 26.3969 10.7945 26.3969 7.79269C26.3969 4.79054 23.8695 2.35669 20.752 2.35669C17.6344 2.35669 15.1071 4.79054 15.1071 7.79269C15.1071 10.7948 17.6344 13.2284 20.752 13.2284Z" fill="#3186FF"/></g>
<g filter="url(#filter6_f_11053_24045)"><path d="M-4.00371 12.5978C-1.13294 14.7806 3.0606 14.0959 5.36306 11.0679C7.66552 8.04024 7.20522 3.81593 4.33445 1.63317C1.46368 -0.549912 -2.72955 0.134704 -5.03232 3.1627C-7.33478 6.1904 -6.87417 10.415 -4.00371 12.5978Z" fill="#FBBC04"/></g>
<g filter="url(#filter7_f_11053_24045)"><path d="M10.7055 15.8242C14.1317 18.1799 18.6735 17.5239 20.8495 14.3584C23.0258 11.1932 22.0123 6.71779 18.5858 4.36209C15.1594 2.00579 10.6178 2.6624 8.44152 5.82732C6.26552 8.99286 7.27875 13.4682 10.7052 15.8242H10.7055Z" fill="#3186FF"/></g>
<g filter="url(#filter8_f_11053_24045)"><path d="M16.9344 -0.718986C17.8061 0.466245 16.6858 2.77024 14.4326 4.42778C12.179 6.08532 9.6458 6.46809 8.7741 5.28317C7.90241 4.09763 9.02241 1.79332 11.2756 0.136091C13.5292 -1.52145 16.0627 -1.90422 16.9341 -0.719294L16.9344 -0.718986Z" fill="#749BFF"/></g>
<g filter="url(#filter9_f_11053_24045)"><path d="M9.77841 4.95474C13.2633 1.72212 14.4593 -2.6545 12.4501 -4.82065C10.4409 -6.9868 5.98672 -6.1228 2.5018 -2.89019C-0.983123 0.342428 -2.17943 4.71904 -0.169892 6.8852C1.83934 9.05135 6.29349 8.18735 9.77841 4.95474Z" fill="#FC413D"/></g>
<g filter="url(#filter10_f_11053_24045)"><path d="M2.63475 16.5653C4.70613 18.0478 7.08398 18.273 7.94613 17.0687C8.80828 15.8641 7.82798 13.6859 5.75659 12.2035C3.68551 10.721 1.30736 10.4958 0.445515 11.7001C-0.416639 12.9047 0.563361 15.0829 2.63475 16.5653Z" fill="#FFEE48"/></g>
</g>
</g>
<defs>
<filter id="filter0_f_11053_24045" x="-6.08361" y="4.04646" width="12.0849" height="13.298" filterUnits="userSpaceOnUse" color-interpolation-filters="sRGB"><feFlood flood-opacity="0" result="BackgroundImageFix"/><feBlend mode="normal" in="SourceGraphic" in2="BackgroundImageFix" result="shape"/><feGaussianBlur stdDeviation="0.756923" result="effect1_foregroundBlur_11053_24045"/></filter>
<filter id="filter1_f_11053_24045" x="-4.5997" y="-12.3871" width="26.1132" height="26.3655" filterUnits="userSpaceOnUse" color-interpolation-filters="sRGB"><feFlood flood-opacity="0" result="BackgroundImageFix"/><feBlend mode="normal" in="SourceGraphic" in2="BackgroundImageFix" result="shape"/><feGaussianBlur stdDeviation="3.65877" result="effect1_foregroundBlur_11053_24045"/></filter>
<filter id="filter2_f_11053_24045" x="-6.37656" y="3.66946" width="24.4478" height="27.9746" filterUnits="userSpaceOnUse" color-interpolation-filters="sRGB"><feFlood flood-opacity="0" result="BackgroundImageFix"/><feBlend mode="normal" in="SourceGraphic" in2="BackgroundImageFix" result="shape"/><feGaussianBlur stdDeviation="3.11046" result="effect1_foregroundBlur_11053_24045"/></filter>
<filter id="filter3_f_11053_24045" x="-6.37656" y="3.66946" width="24.4478" height="27.9746" filterUnits="userSpaceOnUse" color-interpolation-filters="sRGB"><feFlood flood-opacity="0" result="BackgroundImageFix"/><feBlend mode="normal" in="SourceGraphic" in2="BackgroundImageFix" result="shape"/><feGaussianBlur stdDeviation="3.11046" result="effect1_foregroundBlur_11053_24045"/></filter>
<filter id="filter4_f_11053_24045" x="-6.09019" y="4.75613" width="24.533" height="25.0788" filterUnits="userSpaceOnUse" color-interpolation-filters="sRGB"><feFlood flood-opacity="0" result="BackgroundImageFix"/><feBlend mode="normal" in="SourceGraphic" in2="BackgroundImageFix" result="shape"/><feGaussianBlur stdDeviation="3.11046" result="effect1_foregroundBlur_11053_24045"/></filter>
<filter id="filter5_f_11053_24045" x="9.19567" y="-3.55469" width="23.1126" height="22.6944" filterUnits="userSpaceOnUse" color-interpolation-filters="sRGB"><feFlood flood-opacity="0" result="BackgroundImageFix"/><feBlend mode="normal" in="SourceGraphic" in2="BackgroundImageFix" result="shape"/><feGaussianBlur stdDeviation="2.95569" result="effect1_foregroundBlur_11053_24045"/></filter>
<filter id="filter6_f_11053_24045" x="-11.8555" y="-5.00134" width="24.0417" height="24.2334" filterUnits="userSpaceOnUse" color-interpolation-filters="sRGB"><feFlood flood-opacity="0" result="BackgroundImageFix"/><feBlend mode="normal" in="SourceGraphic" in2="BackgroundImageFix" result="shape"/><feGaussianBlur stdDeviation="2.67877" result="effect1_foregroundBlur_11053_24045"/></filter>
<filter id="filter7_f_11053_24045" x="2.51049" y="-1.83637" width="24.2702" height="23.8588" filterUnits="userSpaceOnUse" color-interpolation-filters="sRGB"><feFlood flood-opacity="0" result="BackgroundImageFix"/><feBlend mode="normal" in="SourceGraphic" in2="BackgroundImageFix" result="shape"/><feGaussianBlur stdDeviation="2.39231" result="effect1_foregroundBlur_11053_24045"/></filter>
<filter id="filter8_f_11053_24045" x="4.19704" y="-5.68894" width="17.3144" height="15.9419" filterUnits="userSpaceOnUse" color-interpolation-filters="sRGB"><feFlood flood-opacity="0" result="BackgroundImageFix"/><feBlend mode="normal" in="SourceGraphic" in2="BackgroundImageFix" result="shape"/><feGaussianBlur stdDeviation="2.14061" result="effect1_foregroundBlur_11053_24045"/></filter>
<filter id="filter9_f_11053_24045" x="-4.76096" y="-9.63016" width="21.802" height="21.3248" filterUnits="userSpaceOnUse" color-interpolation-filters="sRGB"><feFlood flood-opacity="0" result="BackgroundImageFix"/><feBlend mode="normal" in="SourceGraphic" in2="BackgroundImageFix" result="shape"/><feGaussianBlur stdDeviation="1.808" result="effect1_foregroundBlur_11053_24045"/></filter>
<filter id="filter10_f_11053_24045" x="-4.34318" y="6.45009" width="17.078" height="15.8686" filterUnits="userSpaceOnUse" color-interpolation-filters="sRGB"><feFlood flood-opacity="0" result="BackgroundImageFix"/><feBlend mode="normal" in="SourceGraphic" in2="BackgroundImageFix" result="shape"/><feGaussianBlur stdDeviation="2.23785" result="effect1_foregroundBlur_11053_24045"/></filter>
<linearGradient id="paint0_linear_11053_24045" x1="5.6923" y1="13.36" x2="16.0634" y2="4.61661" gradientUnits="userSpaceOnUse"><stop stop-color="#4893FC"/><stop offset="0.27" stop-color="#4893FC"/><stop offset="0.777" stop-color="#969DFF"/><stop offset="1" stop-color="#BD99FE"/></linearGradient>
<clipPath id="clip0_11053_24045"><rect width="20" height="20" fill="white"/></clipPath>
</defs>
</svg>
