<svg width="20" height="20" viewBox="0 0 20 20" fill="none" xmlns="http://www.w3.org/2000/svg">
<g clip-path="url(#clip0_4403_28043)">
<path d="M6.10422 12.6552C9.47549 12.6552 12.2084 9.92226 12.2084 6.551C12.2084 3.17973 9.47549 0.446777 6.10422 0.446777C2.73295 0.446777 0 3.17973 0 6.551C0 9.92226 2.73295 12.6552 6.10422 12.6552Z" fill="#4285F4"/>
<path d="M20 7.14646C20 7.83178 19.4444 8.38717 18.7593 8.38717C18.0742 8.38717 17.5186 7.83178 17.5186 7.14646C17.5186 6.46119 18.0742 5.90576 18.7593 5.90576C19.4444 5.90576 20 6.46119 20 7.14646Z" fill="#34A853"/>
<path d="M17.7667 10.1738C17.7667 11.5441 16.6559 12.6551 15.2854 12.6551C13.9147 12.6551 12.804 11.5441 12.804 10.1738C12.804 8.80336 13.9148 7.69238 15.2854 7.69238C16.6559 7.69238 17.7667 8.8034 17.7667 10.1738Z" fill="#EA4335"/>
<path d="M18.263 16.5758C18.263 18.2203 16.9301 19.5533 15.2854 19.5533C13.6407 19.5533 12.3077 18.2203 12.3077 16.5758C12.3077 14.9313 13.6406 13.5981 15.2854 13.5981C16.9301 13.5981 18.263 14.9313 18.263 16.5758Z" fill="#FBBC05"/>
</g>
<defs>
<clipPath id="clip0_4403_28043"><rect width="20" height="20" fill="white"/></clipPath>
</defs>
</svg>
